<svg viewBox="0 0 16 16" fill="none" xmlns="http://www.w3.org/2000/svg">
    <path
        d="M10.0749 14.4657C9.53769 14.6829 8.95781 14.7743 8.37978 14.7326C7.80317 14.7803 7.22354 14.6887 6.68968 14.4657C6.61607 14.4062 6.55686 14.3308 6.51647 14.2452C6.47608 14.1596 6.45555 14.066 6.45642 13.9714C6.45642 13.7861 6.44968 13.2994 6.44631 12.6518C4.28715 13.1208 3.83157 11.6109 3.83157 11.6109C3.68881 11.1418 3.38295 10.7391 2.96926 10.4758C2.26526 9.99409 3.02231 10.0042 3.02231 10.0042C3.26833 10.0382 3.50334 10.128 3.7094 10.2666C3.91547 10.4053 4.08715 10.5891 4.21136 10.8042C4.31653 10.9956 4.4586 11.1643 4.62937 11.3005C4.80013 11.4366 4.9962 11.5376 5.20623 11.5975C5.41626 11.6574 5.63608 11.6751 5.85299 11.6495C6.06989 11.6239 6.27957 11.5555 6.46989 11.4484C6.50544 11.0546 6.68044 10.6864 6.96336 10.4101C5.24042 10.2147 3.42821 9.54862 3.42821 6.57515C3.41689 5.80394 3.70274 5.05794 4.22652 4.49178C3.98998 3.82259 4.01739 3.08841 4.30315 2.43873C4.30315 2.43873 4.9541 2.22988 6.43705 3.23452C7.70902 2.88578 9.05139 2.88578 10.3234 3.23452C11.8055 2.22988 12.4556 2.43873 12.4556 2.43873C12.7419 3.08825 12.7696 3.82253 12.533 4.49178C13.0568 5.05789 13.3424 5.80399 13.3305 6.57515C13.3305 9.5562 11.5158 10.213 9.78694 10.405C9.97214 10.5931 10.1149 10.8185 10.2057 11.0663C10.2965 11.3141 10.3332 11.5785 10.3133 11.8417C10.3133 12.8791 10.304 13.717 10.304 13.9714C10.3088 14.0662 10.2905 14.1607 10.2506 14.2468C10.2107 14.333 10.1504 14.4081 10.0749 14.4657Z"
        fill="currentColor" />
</svg>