<svg viewBox="0 0 16 16" fill="none" xmlns="http://www.w3.org/2000/svg">
    <g clip-path="url(#clip0_3_208)">
        <path
            d="M15.1138 1.3404L0.585916 6.94481C0.227416 7.08306 0.230541 7.59065 0.590072 7.72537L4.13001 9.04659L5.50017 13.453C5.58785 13.7352 5.93295 13.8396 6.16201 13.6523L8.1352 12.0437C8.34201 11.8752 8.63663 11.8668 8.85279 12.0237L12.4118 14.6076C12.6568 14.7857 13.0039 14.6514 13.0654 14.3553L15.6725 1.81456C15.7396 1.49109 15.4218 1.22131 15.1138 1.3404ZM12.3451 4.26287L6.91464 9.31071C6.72376 9.4884 6.60064 9.72618 6.56576 9.98425L6.38076 11.3551C6.35626 11.5382 6.09914 11.5563 6.04864 11.3792L5.3372 8.87937C5.2557 8.59425 5.37445 8.28968 5.62667 8.13403L12.2067 4.0814C12.3249 4.00878 12.4466 4.16868 12.3451 4.26287Z"
            fill="currentColor" />
        <path
            d="M12.6564 15.0064C12.5035 15.0064 12.3524 14.9585 12.2244 14.8654L8.66557 12.2817C8.56663 12.2098 8.43132 12.2136 8.33657 12.2909L6.36345 13.8994C6.1742 14.0542 5.92098 14.1046 5.68657 14.0341C5.45201 13.9635 5.26854 13.7817 5.19585 13.5477L3.87213 9.29063L0.478665 8.02407C0.189259 7.9156 0.00150868 7.64619 8.68175e-06 7.33763C-0.00146007 7.02935 0.18354 6.75844 0.471259 6.64747L14.9991 1.04304C15.2504 0.945975 15.5341 0.993943 15.7397 1.16819C15.9455 1.34269 16.0394 1.61516 15.9846 1.87929L13.3775 14.4202C13.3266 14.6655 13.1565 14.8661 12.9225 14.9565C12.836 14.99 12.7459 15.0064 12.6564 15.0064ZM8.50723 11.5929C8.69398 11.5929 8.88104 11.6503 9.0401 11.7658L12.5991 14.3497C12.6369 14.3772 12.674 14.3692 12.6927 14.3619C12.7114 14.3548 12.744 14.3359 12.7534 14.2906L15.3605 1.74969C15.3708 1.69994 15.3443 1.66866 15.3276 1.65447C15.311 1.64038 15.2761 1.61944 15.2289 1.63766C15.2288 1.63769 15.2287 1.63772 15.2286 1.63776L0.700728 7.24222C0.648228 7.26247 0.637353 7.3036 0.637509 7.33457C0.637665 7.36579 0.648946 7.4071 0.701946 7.42697L4.24148 8.74807C4.33385 8.78257 4.40507 8.85788 4.43438 8.95204L5.80454 13.3585C5.8181 13.4021 5.85145 13.418 5.87013 13.4237C5.88873 13.4292 5.92517 13.4344 5.96029 13.4056L7.93385 11.7967C8.10013 11.6612 8.30351 11.5929 8.50723 11.5929ZM6.21095 11.8214C5.99267 11.8214 5.80301 11.6798 5.74223 11.4666L5.03073 8.9666C4.91076 8.54666 5.08698 8.09263 5.45935 7.86276L12.0396 3.80994C12.2309 3.69247 12.477 3.73857 12.6124 3.91697C12.7477 4.09516 12.7259 4.34432 12.5619 4.49651L7.1317 9.54416C6.99548 9.67097 6.90657 9.84254 6.88167 10.027L6.69667 11.3978C6.66567 11.6294 6.48101 11.8032 6.2477 11.8201C6.23538 11.821 6.2231 11.8214 6.21095 11.8214ZM10.6144 5.43644L5.79388 8.40541C5.66357 8.48582 5.60176 8.64482 5.64373 8.79182L6.1602 10.6066L6.24992 9.94163C6.29454 9.61144 6.45351 9.30454 6.69751 9.07741L10.6144 5.43644Z"
            fill="currentColor" />
        <path
            d="M13.2431 8.73281C13.2207 8.73281 13.198 8.73046 13.1751 8.72549C13.0031 8.68815 12.8939 8.5184 12.9313 8.3464L12.9797 8.12328C13.0171 7.95124 13.1868 7.84203 13.3588 7.8794C13.5308 7.91674 13.64 8.08649 13.6027 8.25849L13.5542 8.48162C13.5219 8.63087 13.3898 8.73281 13.2431 8.73281Z"
            fill="currentColor" />
        <path
            d="M12.2396 13.3544C12.2172 13.3544 12.1945 13.3521 12.1717 13.3471C11.9997 13.3097 11.8905 13.14 11.9279 12.968L12.6609 9.59141C12.6983 9.41937 12.8678 9.31019 13.0401 9.34753C13.2121 9.38487 13.3213 9.55463 13.2839 9.72663L12.5508 13.1032C12.5184 13.2525 12.3864 13.3544 12.2396 13.3544Z"
            fill="currentColor" />
    </g>
    <defs>
        <clipPath id="clip0_3_208">
            <rect width="16" height="16" fill="currentColor" />
        </clipPath>
    </defs>
</svg>